<svg version="1.0" xmlns="http://www.w3.org/2000/svg" width="96px" height="96px" viewBox="0 0 96 96" preserveAspectRatio="xMidYMid meet">
 <g fill="#000000">
  
  
  
 </g>
 <g fill="#157683">
  <path d="M36.05 89.73 c-3.55 -1.43 -7.36 -3.77 -10.69 -6.56 -1.21 -1.01 -3.82 -3.64 -4.74 -4.79 -1.20 -1.47 -1.72 -2.24 -1.57 -2.30 0.07 -0.03 0.46 0.04 0.86 0.14 0.94 0.23 1.80 0.23 2.71 0 0.68 -0.17 1.56 -0.64 1.84 -0.97 0.07 -0.09 0.17 -0.16 0.22 -0.16 0.05 0 0.53 0.47 1.09 1.04 1.03 1.08 2.47 2.30 3.45 2.92 l0.57 0.37 0.36 1.07 c1.15 3.50 3.48 6.70 6.89 9.50 0.13 0.10 0.22 0.19 0.19 0.20 -0.03 0 -0.55 -0.21 -1.17 -0.46z" data-index="3" style="opacity: 1;"></path>
  <path d="M19.31 73.78 c-0.08 -0.05 -0.60 -0.29 -1.17 -0.56 -6.22 -2.92 -10.85 -8.64 -12.22 -15.09 -0.35 -1.60 -0.42 -2.62 -0.37 -4.72 0.07 -2.71 0.45 -4.80 1.31 -7.19 2.22 -6.10 6.27 -10.65 12.12 -13.57 5.35 -2.68 11.49 -4.11 20.71 -4.80 6.07 -0.46 6.71 -0.52 9.84 -0.85 2.59 -0.27 6.30 -0.88 8.67 -1.41 0.69 -0.16 1.54 -0.34 1.88 -0.41 0.34 -0.08 0.84 -0.14 1.13 -0.14 0.36 0 0.57 -0.05 0.65 -0.14 0.14 -0.17 1.99 -0.19 4.29 -0.05 l1.43 0.08 1.07 -0.45 c5.42 -2.30 9.76 -6.33 13.81 -12.82 0.93 -1.49 2.97 -5.06 3.66 -6.38 0.32 -0.63 0.38 -0.68 0.64 -0.68 l0.30 0 0.06 4.48 c0.03 2.46 0.07 5.43 0.08 6.61 0.02 1.17 0 2.12 -0.04 2.11 -0.05 -0.02 -0.68 -0.61 -1.43 -1.31 -0.74 -0.71 -1.39 -1.29 -1.43 -1.29 -0.04 0 -0.37 0.47 -0.73 1.05 -4.42 7.05 -11.27 11.79 -20.81 14.42 -2.93 0.81 -7.79 1.66 -11.56 2.03 -1.35 0.14 -1.65 0.20 -1.68 0.32 -0.05 0.18 0.06 0.16 -3.83 0.52 -1.39 0.12 -2.66 0.25 -2.83 0.28 -0.26 0.05 -0.29 0.04 -0.24 -0.14 0.05 -0.19 0.02 -0.20 -0.50 -0.15 -0.31 0.03 -1.75 0.16 -3.22 0.28 -4.25 0.38 -6.33 0.68 -9.24 1.32 -5.37 1.19 -9.71 3.08 -12.82 5.55 -4.40 3.51 -6.83 9.16 -6.38 14.76 0.20 2.35 0.62 3.95 1.58 5.97 1.19 2.50 3.12 4.78 5.33 6.26 0.94 0.63 2.14 1.28 2.32 1.27 0.28 -0.03 0.20 0.29 -0.21 0.71 -0.99 1.04 -1.09 2.26 -0.27 3.38 0.30 0.41 0.35 0.88 0.08 0.75z" data-index="4" style="opacity: 1;"></path>
  <path d="M73.78 71.59 c0.08 -0.11 0.05 -0.15 -0.25 -0.20 -2.30 -0.37 -3.51 -0.74 -5.23 -1.59 -1.64 -0.82 -2.78 -1.64 -4.17 -3.05 -1.38 -1.38 -2.22 -2.52 -3 -4.08 -0.43 -0.86 -1.13 -2.61 -1.13 -2.83 0 -0.02 0.31 -0.03 0.69 -0.03 0.50 0 0.89 -0.07 1.39 -0.23 0.38 -0.13 0.75 -0.23 0.83 -0.23 0.09 0 0.22 0.22 0.36 0.68 0.29 0.88 1.01 2.27 1.67 3.18 0.70 0.98 2.23 2.44 3.22 3.10 1.83 1.21 4.47 2.13 6.13 2.13 0.75 0 1.08 0.08 1.08 0.29 0 0.26 -0.45 1.46 -0.85 2.27 -0.32 0.62 -0.40 0.72 -0.61 0.72 -0.21 0 -0.22 -0.02 -0.13 -0.13z" data-index="5" style="opacity: 1;"></path>
  <path d="M20.78 65.99 c-0.19 -0.18 -1.05 -1.40 -1.91 -2.71 -2.36 -3.55 -2.98 -4.63 -3.41 -5.91 -0.25 -0.76 -0.31 -1.06 -0.35 -2.02 -0.05 -1.35 0.08 -1.96 0.65 -3.14 0.51 -1.02 1.67 -2.23 2.63 -2.69 2.38 -1.16 4.74 -0.97 6.81 0.56 0.98 0.72 1.86 2.03 2.24 3.30 0.23 0.77 0.23 2.66 0 3.52 -0.37 1.33 -1.23 2.88 -3.58 6.42 -1.71 2.58 -1.93 2.85 -2.39 2.92 -0.30 0.05 -0.39 0.01 -0.68 -0.26z m1.29 -7.15 c1.91 -0.51 3.38 -2.56 3.07 -4.28 -0.28 -1.54 -1.36 -2.75 -2.84 -3.20 -1.21 -0.37 -2.50 0 -3.55 1 -1.60 1.53 -1.65 3.55 -0.12 5.19 0.72 0.78 1.74 1.27 2.89 1.40 0.06 0 0.31 -0.05 0.56 -0.12z" data-index="6"></path>
  <path d="M74.79 65.65 c-0.44 -1.15 -1.50 -4.54 -1.45 -4.66 0.03 -0.08 0.48 -0.36 1 -0.62 l0.94 -0.47 0 2.87 c0 2.71 -0.05 3.22 -0.27 3.22 -0.04 0 -0.14 -0.16 -0.22 -0.35z" data-index="7"></path>
  <path d="M80.25 61.61 c-1.68 -0.76 -3.12 -1.34 -3.24 -1.29 -0.08 0.03 -0.13 0.11 -0.13 0.20 0 0.08 -0.07 0.14 -0.14 0.14 -0.08 0 -0.14 -0.06 -0.14 -0.11 0 -0.07 -0.22 -0.24 -0.47 -0.38 -0.26 -0.15 -0.47 -0.32 -0.47 -0.38 0 -0.07 0.31 -0.31 0.68 -0.55 0.37 -0.24 0.83 -0.60 1.03 -0.79 l0.36 -0.36 1.59 1.59 c0.87 0.87 1.61 1.68 1.64 1.79 0.12 0.46 0.03 0.48 -0.71 0.14z" data-index="8" style="opacity: 1;"></path>
  <path d="M79.03 57.96 c0 -0.20 -0.37 -0.58 -0.55 -0.58 -0.15 0 -0.15 -0.01 0.46 -1.08 l0.52 -0.90 2.72 0.07 c2.65 0.06 3.27 0.13 3.08 0.33 -0.05 0.05 -1.34 0.49 -2.88 0.98 -1.53 0.49 -2.82 0.91 -2.88 0.95 -0.06 0.03 -0.08 0.14 -0.06 0.23 0.04 0.14 0 0.18 -0.18 0.18 -0.16 0 -0.22 -0.06 -0.22 -0.17z" data-index="9"></path>
  <path d="M67.15 56 c-1.83 -0.03 -1.90 -0.04 -1.90 -0.22 0 -0.10 0.06 -0.19 0.12 -0.19 0.08 0 0.38 -0.12 0.68 -0.27 0.58 -0.28 1.66 -0.63 3.09 -1 1.14 -0.30 1.57 -0.48 1.50 -0.66 -0.04 -0.09 0.02 -0.13 0.16 -0.13 0.16 0 0.27 0.10 0.42 0.42 0.11 0.23 0.21 0.46 0.21 0.51 0 0.05 -0.20 0.42 -0.43 0.84 l-0.43 0.76 -0.77 -0.02 c-0.41 -0.02 -1.61 -0.04 -2.65 -0.05z" data-index="10"></path>
  <path d="M62.63 52.27 c-0.45 -0.26 -1.42 -0.52 -1.98 -0.52 -0.68 0 -0.68 -0.02 -0.26 -1.18 0.77 -2.17 1.88 -3.97 3.50 -5.64 1.85 -1.90 3.58 -3.04 6.08 -3.97 0.40 -0.15 0.75 -0.27 0.78 -0.27 0.02 0 0.04 0.12 0.04 0.28 0 0.69 0.42 1.91 0.82 2.36 0.11 0.14 0.11 0.17 0.01 0.21 -2.84 0.89 -5.18 2.55 -6.75 4.78 -0.60 0.85 -1.44 2.56 -1.66 3.38 -0.09 0.37 -0.22 0.67 -0.26 0.68 -0.05 0.01 -0.19 -0.04 -0.32 -0.11z" data-index="11"></path>
  <path d="M74.76 51.12 c0.03 -0.20 0.06 -1.42 0.06 -2.72 0 -2.21 0.01 -2.37 0.17 -2.37 0.10 0 0.22 0.12 0.28 0.31 0.23 0.58 1.42 4.02 1.42 4.11 0 0.05 -0.06 0.08 -0.12 0.08 -0.07 0 -0.49 0.22 -0.94 0.47 -0.45 0.26 -0.84 0.47 -0.87 0.47 -0.04 0 -0.04 -0.16 0 -0.35z" data-index="12" style="opacity: 1;"></path>
 </g>
 <g fill="#37a3aa">
  <path d="M48.38 91.82 c-5.02 -0.48 -8.92 -2.21 -12.13 -5.42 -2.88 -2.87 -4.63 -6.72 -5.18 -11.36 -0.21 -1.72 -0.14 -4.66 0.15 -6.65 0.10 -0.77 0.23 -1.50 0.28 -1.61 0.10 -0.25 1.83 -1.57 3.74 -2.83 1.34 -0.90 1.45 -0.96 1.78 -0.90 0.48 0.08 0.72 0.27 0.79 0.60 0.05 0.21 0.11 0.29 0.25 0.29 0.23 0 0.23 0.11 0.01 0.85 -0.69 2.27 -1.04 4.26 -1.11 6.37 -0.12 3.83 0.71 6.99 2.61 9.85 0.75 1.13 2.72 3.11 3.83 3.85 2.16 1.42 4.57 2.28 7.43 2.62 1.38 0.16 5 0.06 6.26 -0.18 4.91 -0.93 9.17 -2.92 13.35 -6.23 1.30 -1.04 4.23 -4.01 5.28 -5.36 0.99 -1.27 2.17 -2.99 2.69 -3.93 0.29 -0.52 0.33 -0.66 0.22 -0.72 -0.08 -0.06 0 -0.08 0.25 -0.08 0.23 0 0.44 -0.06 0.51 -0.14 0.12 -0.15 0.94 -0.21 0.94 -0.06 0 0.05 -0.25 0.58 -0.57 1.19 -2.92 5.70 -7.57 10.92 -12.83 14.45 -2.62 1.74 -5.18 3.01 -8.06 3.97 -2.91 0.97 -5.34 1.39 -8.25 1.44 -1 0.02 -2.02 0.02 -2.25 0z" data-index="13" style="opacity: 1;"></path>
  <path d="M23.92 70.92 c-0.14 -0.30 -0.15 -0.77 -0.02 -0.84 0.10 -0.07 -0.09 -0.50 -0.34 -0.75 -0.14 -0.14 0 -0.30 1.94 -2.23 1.15 -1.14 2.65 -2.53 3.32 -3.08 1.33 -1.09 3.65 -2.78 4.67 -3.39 1.59 -0.98 1.83 -1.12 2.27 -1.34 0.26 -0.13 0.60 -0.32 0.75 -0.41 0.50 -0.32 1.74 -0.94 1.88 -0.94 0.11 0 0.13 0.17 0.11 0.96 l-0.03 0.96 -0.66 0.37 c-4.26 2.35 -8.42 5.51 -11.97 9.09 -0.87 0.87 -1.58 1.64 -1.58 1.72 0 0.22 -0.24 0.15 -0.36 -0.10z" data-index="14"></path>
  <path d="M74.93 65.87 c0.04 -0.09 0.07 -1.09 0.07 -2.22 0 -1.99 0.01 -2.05 0.19 -2.05 0.14 0 0.19 0.07 0.19 0.23 0 0.13 0.06 0.23 0.12 0.23 0.08 0 0.19 0.10 0.25 0.23 0.07 0.13 0.16 0.23 0.20 0.23 0.04 0 0.08 0.09 0.12 0.22 0.07 0.27 -0.88 3.18 -1.06 3.23 -0.09 0.03 -0.11 0 -0.08 -0.11z" data-index="15"></path>
  <path d="M41.63 64.02 c-0.58 -0.11 -1.08 -0.47 -1.39 -0.99 l-0.26 -0.45 0 -5.63 c0 -3.09 0.03 -5.73 0.08 -5.86 0.04 -0.13 0.13 -0.32 0.21 -0.41 0.11 -0.15 0.16 -0.16 0.28 -0.06 0.12 0.10 0.14 0.08 0.14 -0.12 0 -0.28 0.23 -0.44 0.64 -0.44 0.27 0 0.27 0 0.32 0.65 0.06 0.79 0.30 1.23 0.85 1.55 0.82 0.47 1.79 0.37 2.39 -0.25 0.38 -0.39 0.49 -0.70 0.49 -1.37 l0 -0.54 0.50 -0.07 c0.26 -0.03 1.13 -0.06 1.92 -0.06 l1.42 0 0 0.54 c0.01 1.21 0.55 1.87 1.71 2.03 0.36 0.06 0.53 0.03 0.95 -0.17 0.75 -0.35 1.02 -0.74 1.08 -1.61 l0.05 -0.70 0.29 0 c0.38 0 0.79 0.28 1.06 0.72 l0.22 0.36 0 5.68 0 5.67 -0.23 0.48 c-0.29 0.58 -0.77 0.93 -1.44 1.06 -0.62 0.11 -10.65 0.11 -11.25 -0.01z m11.16 -1.75 l0.27 -0.30 0 -3.97 0 -3.97 -0.29 -0.24 -0.29 -0.24 -5.15 0 c-5.78 0 -5.62 -0.02 -5.80 0.64 -0.08 0.23 -0.09 1.55 -0.08 4.02 0.03 3.55 0.04 3.67 0.22 3.94 0.38 0.51 0.24 0.50 5.74 0.48 l5.10 -0.03 0.27 -0.31z" data-index="16"></path>
  <path d="M38.01 62.66 c-0.07 -0.49 0.03 -0.62 0.43 -0.58 0.18 0.02 0.24 0.09 0.26 0.30 0.06 0.50 -0.05 0.71 -0.36 0.71 -0.25 0 -0.27 -0.03 -0.34 -0.43z" data-index="17"></path>
  <path d="M69.17 61.29 c0.15 -0.27 0.56 -1.02 0.92 -1.67 1.12 -2.06 2.59 -4.63 2.88 -5.03 0.32 -0.45 0.67 -0.53 0.94 -0.23 0.18 0.20 0.21 0.39 0.06 0.39 -0.19 0 -0.49 0.84 -0.43 1.24 0.09 0.68 0.78 1.29 1.46 1.29 0.27 0 0.74 -0.20 1.15 -0.49 0.14 -0.10 0.21 -0.08 0.42 0.13 l0.25 0.26 -0.27 0.29 c-0.34 0.35 -1.49 1.07 -3 1.87 -0.62 0.33 -1.89 1.01 -2.83 1.52 -0.95 0.51 -1.73 0.92 -1.77 0.92 -0.03 0 0.08 -0.22 0.22 -0.49z" data-index="18" style="opacity: 1;"></path>
  <path d="M76.31 60.38 c0 -0.25 0.02 -0.47 0.05 -0.47 0.04 0 0.18 0.07 0.33 0.14 0.24 0.13 0.26 0.16 0.18 0.44 -0.05 0.17 -0.08 0.32 -0.08 0.33 0 0.02 -0.10 0.03 -0.23 0.03 -0.22 0 -0.23 -0.03 -0.23 -0.47z" data-index="19"></path>
  <path d="M33.28 58.58 c0 -0.02 0.13 -0.37 0.29 -0.78 0.16 -0.41 0.87 -2.33 1.58 -4.27 2.02 -5.47 3.80 -10.22 5.28 -14.11 2 -5.21 2.23 -5.80 2.32 -5.89 0.04 -0.05 1.27 -0.19 2.72 -0.31 1.45 -0.12 2.95 -0.26 3.34 -0.30 0.52 -0.06 0.69 -0.05 0.69 0.04 0 0.06 -0.47 1.39 -1.04 2.95 -0.57 1.57 -1.28 3.53 -1.58 4.35 -0.30 0.82 -0.93 2.53 -1.41 3.80 -0.48 1.27 -0.90 2.40 -0.95 2.53 -0.08 0.23 -0.12 0.24 -0.87 0.23 -0.73 0 -0.82 0.02 -1.19 0.29 -0.51 0.36 -0.83 0.82 -0.83 1.16 0 0.23 -0.04 0.26 -0.47 0.31 -1.04 0.12 -1.87 0.73 -2.31 1.68 l-0.27 0.59 -0.04 2.48 -0.03 2.48 -1.28 0.63 c-1.20 0.59 -2.30 1.17 -2.82 1.50 -0.44 0.27 -1.13 0.65 -1.13 0.62z" data-index="20" style="opacity: 1;"></path>
  <path d="M67.72 56.75 c-1.89 -0.59 -2 -0.64 -2 -0.85 l0 -0.23 2.45 0.06 c1.35 0.03 2.47 0.08 2.49 0.10 0.07 0.07 -0.76 1.56 -0.86 1.55 -0.05 0 -0.99 -0.28 -2.08 -0.62z" data-index="21"></path>
  <path d="M84.40 55.81 c-0.50 -0.04 -0.57 -0.10 -0.44 -0.43 0.05 -0.12 0.13 -0.11 0.65 0.06 0.93 0.32 0.85 0.45 -0.21 0.38z" data-index="22"></path>
  <path d="M81.59 55.25 c-0.32 -0.04 -0.45 -0.27 -0.38 -0.67 0.03 -0.18 0.03 -0.18 0.67 0.01 0.58 0.18 0.63 0.21 0.63 0.45 0 0.29 -0.08 0.31 -0.91 0.21z" data-index="23"></path>
  <path d="M70.59 53.47 c-0.33 -0.71 -0.82 -1.77 -1.10 -2.36 -0.27 -0.59 -0.50 -1.11 -0.50 -1.14 0 -0.22 0.60 0 2.19 0.82 0.97 0.50 1.79 0.86 1.84 0.82 0.04 -0.05 0.38 -1.05 0.75 -2.24 0.37 -1.18 0.73 -2.20 0.81 -2.26 0.08 -0.06 0.13 -0.23 0.13 -0.38 0 -0.35 0.18 -0.87 0.29 -0.87 0.10 0 0.09 -0.24 0.08 2.81 0 2.33 -0.02 2.59 -0.17 2.70 -0.08 0.07 -0.48 0.32 -0.86 0.57 -0.98 0.64 -1.77 1.39 -2.30 2.17 -0.25 0.36 -0.49 0.66 -0.52 0.66 -0.04 0 -0.34 -0.58 -0.66 -1.28z" data-index="24"></path>
  <path d="M13.21 33.72 c0.46 -1.18 1.60 -3.51 2.57 -5.22 3.23 -5.75 8.40 -11.11 13.78 -14.31 3.77 -2.24 8.56 -3.94 12.91 -4.57 3.79 -0.55 7.88 -0.59 11.39 -0.10 2.60 0.37 5.28 1.02 7.59 1.85 1.91 0.68 2.77 1.09 2.77 1.31 0 0.14 -0.04 0.17 -0.16 0.12 -0.58 -0.22 -2.43 -0.73 -3.54 -0.98 -3.12 -0.68 -6.19 -0.94 -9.14 -0.77 -7.49 0.43 -13.21 2.75 -19.77 8.02 -3.82 3.07 -7.18 6.44 -9.29 9.31 -0.38 0.52 -0.75 0.96 -0.82 0.97 -0.06 0 -0.69 0.23 -1.41 0.52 -2.11 0.85 -4.41 2.14 -6.12 3.44 -0.62 0.47 -0.82 0.57 -0.76 0.42z" data-index="25"></path>
 </g>
 <g fill="#3cadb1">
  <path d="M79.10 72.97 c0.04 -0.09 0.27 -0.56 0.52 -1.05 0.25 -0.48 0.44 -0.90 0.41 -0.92 -0.05 -0.05 -0.15 -0.02 -0.43 0.14 -0.43 0.24 -0.56 0.30 -0.56 0.21 0 -0.05 -0.04 -0.09 -0.09 -0.09 -0.05 0 -0.09 0.04 -0.09 0.08 0 0.13 -0.68 1.13 -0.77 1.13 -0.05 0 0.02 -0.14 0.15 -0.30 0.19 -0.26 0.52 -0.94 0.52 -1.08 0 -0.02 -0.08 -0.01 -0.19 0.02 -0.10 0.03 -0.19 0.03 -0.19 -0.02 0.01 -0.20 0.20 -0.32 0.89 -0.53 0.77 -0.24 1.45 -0.32 1.45 -0.15 0 0.06 -0.06 0.09 -0.11 0.09 -0.13 0 -0.64 0.85 -0.64 1.08 0 0.08 -0.04 0.14 -0.08 0.14 -0.04 0 -0.21 0.29 -0.37 0.65 -0.16 0.36 -0.34 0.68 -0.38 0.71 -0.07 0.04 -0.08 -0.01 -0.04 -0.11z" data-index="26"></path>
  <path d="M23.81 70.60 c0 -0.05 -0.15 -0.30 -0.33 -0.57 -0.31 -0.46 -0.48 -1.13 -0.22 -0.86 0.08 0.08 0.16 0.06 0.34 -0.08 l0.23 -0.18 0.24 0.49 c0.13 0.27 0.28 0.52 0.32 0.55 0.10 0.08 -0.02 0.34 -0.18 0.40 -0.07 0.03 -0.10 0.11 -0.08 0.20 0.04 0.09 0 0.14 -0.14 0.14 -0.11 0 -0.20 -0.04 -0.20 -0.08z" data-index="27"></path>
  <path d="M37.97 64.32 c0 -0.06 -0.07 -0.10 -0.15 -0.10 -0.17 0 -0.43 -0.23 -0.35 -0.32 0.04 -0.03 -0.05 -0.06 -0.17 -0.06 -0.17 0 -0.20 -0.02 -0.08 -0.08 0.08 -0.06 0.17 -0.07 0.22 -0.04 0.05 0.03 0.06 0.01 0.02 -0.05 -0.04 -0.07 -0.15 -0.16 -0.26 -0.22 -0.10 -0.06 -0.17 -0.07 -0.14 -0.02 0.03 0.05 0.02 0.14 -0.02 0.21 -0.08 0.14 -0.48 0.06 -0.48 -0.09 0 -0.06 0.08 -0.05 0.22 0.01 0.19 0.09 0.19 0.09 0.05 -0.03 -0.09 -0.08 -0.14 -0.16 -0.10 -0.19 0.14 -0.14 -0.08 -0.05 -0.40 0.17 -0.38 0.26 -0.66 0.21 -0.32 -0.07 0.11 -0.09 0.67 -0.45 1.23 -0.79 1.17 -0.70 1.42 -0.74 1.47 -0.22 0.03 0.38 -0.45 1.89 -0.62 1.95 -0.07 0.02 -0.11 -0.01 -0.11 -0.07z m0.56 -1.89 c0 -0.27 -0.14 -0.38 -0.21 -0.16 -0.07 0.18 0.03 0.54 0.12 0.49 0.05 -0.03 0.08 -0.17 0.08 -0.33z" data-index="28"></path>
  <path d="M75.07 62.35 c-0.11 -2.43 -0.13 -2.27 0.37 -2.55 l0.44 -0.24 0.54 0.32 c0.33 0.20 0.52 0.38 0.49 0.43 -0.05 0.08 -0.08 0.07 -0.10 -0.01 -0.06 -0.18 -0.21 -0.13 -0.21 0.08 0 0.12 0.05 0.17 0.14 0.13 0.08 -0.04 0.14 -0.04 0.14 -0.01 0 0.05 -0.68 2.24 -0.80 2.57 -0.06 0.16 -0.33 0.05 -0.33 -0.14 0 -0.12 -0.03 -0.11 -0.19 0.03 -0.16 0.15 -0.19 0.15 -0.19 0.02 0 -0.08 0.06 -0.17 0.12 -0.20 0.08 -0.03 0.07 -0.08 -0.05 -0.18 -0.09 -0.08 -0.14 -0.16 -0.10 -0.19 0.03 -0.04 0 -0.07 -0.07 -0.07 -0.08 0 -0.10 0.09 -0.08 0.31 0.03 0.16 0.02 0.49 -0.01 0.72 -0.05 0.31 -0.08 0.02 -0.13 -1.02z" data-index="29"></path>
  <path d="M80.93 61.94 c-0.12 -0.05 -0.22 -0.14 -0.22 -0.20 0 -0.06 -0.71 -0.82 -1.59 -1.70 -0.87 -0.87 -1.59 -1.62 -1.59 -1.67 0 -0.05 0.17 -0.27 0.37 -0.52 0.21 -0.24 0.48 -0.56 0.60 -0.71 l0.22 -0.28 0.32 0.37 c0.18 0.20 0.31 0.39 0.30 0.43 -0.02 0.04 0.19 0.55 0.45 1.13 0.76 1.68 1.41 3.20 1.38 3.22 -0.02 0.01 -0.12 -0.02 -0.23 -0.08z" data-index="30"></path>
  <path d="M69.44 61.09 c-0.03 -0.08 -0.02 -0.17 0.04 -0.21 0.15 -0.08 0.21 0.02 0.10 0.20 -0.08 0.14 -0.09 0.15 -0.14 0.01z" data-index="31"></path>
  <path d="M45.25 59.76 c-1.26 -1.20 -1.41 -1.42 -1.18 -1.80 0.11 -0.22 0.21 -0.25 0.60 -0.28 0.47 -0.03 0.47 -0.03 1.13 0.64 0.36 0.36 0.69 0.66 0.74 0.66 0.06 0 0.90 -0.80 1.88 -1.78 1.45 -1.44 1.84 -1.78 2.05 -1.78 0.36 0 0.71 0.38 0.71 0.77 0 0.27 -0.22 0.52 -2.18 2.48 -1.57 1.57 -2.24 2.18 -2.39 2.18 -0.14 0 -0.59 -0.36 -1.36 -1.09z" data-index="32"></path>
  <path d="M69.84 57.14 c0 -0.03 0.08 -0.22 0.19 -0.42 0.10 -0.21 0.17 -0.38 0.13 -0.38 -0.03 0 0.02 -0.07 0.09 -0.15 0.08 -0.08 0.15 -0.19 0.15 -0.23 0 -0.11 -4.28 -0.11 -4.35 0 -0.06 0.09 0.46 0.32 0.96 0.43 0.16 0.03 0.30 0.09 0.30 0.14 0 0.05 -0.24 0 -0.53 -0.10 -0.30 -0.10 -0.65 -0.21 -0.78 -0.23 -0.13 -0.02 -0.42 -0.11 -0.64 -0.19 -0.34 -0.12 -0.38 -0.18 -0.28 -0.27 0.09 -0.08 0.75 -0.09 2.83 -0.04 1.49 0.05 2.73 0.09 2.75 0.12 0.06 0.06 -0.59 1.25 -0.72 1.32 -0.06 0.03 -0.09 0.03 -0.09 0z" data-index="33"></path>
  <path d="M80.56 55.72 l-1.25 -0.04 0.38 -0.74 c0.44 -0.87 0.45 -0.87 1.53 -0.55 0.75 0.22 1.04 0.39 0.53 0.32 -0.18 -0.03 -0.27 -0.03 -0.21 0.01 0.06 0.03 0.09 0.08 0.07 0.13 -0.03 0.04 0.10 0.09 0.28 0.11 0.24 0.03 0.32 0.01 0.29 -0.08 -0.03 -0.07 0.02 -0.12 0.09 -0.12 0.14 0 1.98 0.54 2.12 0.63 0.04 0.02 0 0.12 -0.09 0.22 -0.17 0.21 -0.16 0.20 -3.74 0.12z" data-index="34"></path>
  <path d="M34.64 54.99 c0.04 -0.16 0.12 -0.43 0.21 -0.61 0.08 -0.19 0.16 -0.38 0.17 -0.44 0.11 -0.51 0.47 -1.26 0.60 -1.26 0.13 0 0.13 0.02 0.01 0.09 -0.08 0.05 -0.10 0.09 -0.07 0.09 0.05 0 0.01 0.11 -0.07 0.26 -0.08 0.14 -0.28 0.61 -0.43 1.04 -0.32 0.88 -0.52 1.27 -0.42 0.82z" data-index="35"></path>
  <path d="M48.94 51.87 c0 -0.07 0.05 -0.12 0.10 -0.12 0.08 0 0.08 -0.20 0.04 -0.68 -0.04 -0.38 -0.08 -0.74 -0.08 -0.80 0 -0.09 -0.38 -0.12 -1.54 -0.12 -1 0 -1.52 -0.03 -1.48 -0.09 0.04 -0.06 0.68 -0.09 1.65 -0.09 l1.58 0 0 0.54 c0.01 0.29 0.07 0.70 0.14 0.91 0.16 0.44 0.17 0.52 0.06 0.52 -0.05 0 -0.11 -0.08 -0.13 -0.16 -0.04 -0.14 -0.05 -0.13 -0.06 0.03 -0.01 0.21 -0.29 0.27 -0.29 0.07z" data-index="36"></path>
  <path d="M40.80 51.13 c-0.09 -0.10 -0.16 -0.11 -0.25 -0.04 -0.08 0.08 -0.13 0.06 -0.18 -0.06 -0.06 -0.15 -0.08 -0.14 -0.21 0.02 -0.08 0.10 -0.07 0.02 0.05 -0.21 0.22 -0.47 0.70 -0.79 1.14 -0.78 0.18 0 0.25 0.03 0.18 0.06 -0.30 0.09 -0.56 0.25 -0.56 0.33 0 0.05 0.04 0.07 0.08 0.03 0.09 -0.05 0.22 0.10 0.25 0.28 0.01 0.06 -0.08 0.19 -0.19 0.30 -0.17 0.18 -0.22 0.19 -0.32 0.07z" data-index="37"></path>
  <path d="M43.10 51.02 c-0.13 -0.14 -0.16 -0.39 -0.16 -1.41 0 -1.36 0.03 -1.42 0.65 -1.42 0.51 0 0.57 0.16 0.57 1.50 0 1.14 -0.01 1.22 -0.21 1.35 -0.28 0.20 -0.67 0.19 -0.85 -0.02z" data-index="38"></path>
  <path d="M50.66 51.06 c-0.16 -0.12 -0.18 -0.25 -0.18 -1.37 0 -1.38 0.06 -1.50 0.66 -1.50 0.52 0 0.61 0.20 0.61 1.48 0 1.05 -0.02 1.15 -0.21 1.33 -0.23 0.22 -0.62 0.24 -0.88 0.06z" data-index="39"></path>
  <path d="M74.39 47.51 c0.08 -0.42 0.36 -1.16 0.48 -1.29 0.11 -0.11 0.13 -0.02 0.13 0.64 0 0.75 -0.08 0.94 -0.27 0.61 -0.08 -0.15 -0.09 -0.15 -0.10 -0.02 0 0.08 -0.06 0.18 -0.13 0.21 -0.10 0.04 -0.12 0 -0.10 -0.14z" data-index="40"></path>
  <path d="M44.14 46.76 c0.15 -0.15 0.14 -0.29 0 -0.21 -0.07 0.03 0 -0.06 0.14 -0.20 0.33 -0.31 0.40 -0.26 0.25 0.18 -0.08 0.24 -0.16 0.34 -0.31 0.34 -0.15 0 -0.17 -0.03 -0.08 -0.11z" data-index="41"></path>
  <path d="M42.53 34.16 c-0.07 -0.08 0.12 -0.60 0.22 -0.60 0.05 0 0.05 0.13 0 0.29 -0.10 0.34 -0.13 0.38 -0.22 0.31z" data-index="42"></path>
  <path d="M66.53 13.76 c-0.10 -0.06 -0.77 -0.32 -1.48 -0.59 -1.31 -0.50 -1.55 -0.61 -1.26 -0.61 0.09 0 0.13 -0.05 0.09 -0.10 -0.09 -0.17 0.28 -0.02 1.39 0.53 1.09 0.54 1.68 0.88 1.53 0.88 -0.05 0 -0.18 -0.06 -0.27 -0.11z" data-index="43"></path>
 </g>
 <g fill="#d5ad4a">
  <path d="M56.06 55.69 c0 -0.87 0.01 -0.94 0.19 -0.94 0.18 0 0.19 0.07 0.19 0.94 0 0.87 -0.01 0.94 -0.19 0.94 -0.18 0 -0.19 -0.07 -0.19 -0.94z" data-index="44"></path>
  <path d="M65.77 25.13 c-0.56 -0.04 -1.71 -0.08 -2.53 -0.08 l-1.50 -0.01 0.23 -0.22 c0.13 -0.12 0.51 -0.31 0.84 -0.42 0.53 -0.17 2.74 -0.98 3.22 -1.18 0.17 -0.08 0.18 -0.04 0.13 0.63 l-0.05 0.71 0.29 0.05 c0.16 0.03 0.64 0.10 1.07 0.17 0.79 0.12 0.91 0.20 0.59 0.37 -0.20 0.10 -0.68 0.10 -2.31 0z" data-index="45"></path>
 </g>
 <g fill="#e2ae43">
  <path d="M66.94 25.02 c-0.23 -0.05 -0.51 -0.09 -0.61 -0.12 -0.10 -0.02 -0.25 -0.05 -0.34 -0.05 -0.08 -0.01 -0.22 -0.07 -0.30 -0.12 -0.15 -0.11 -0.15 -0.15 0.04 -0.49 0.10 -0.20 0.16 -0.39 0.11 -0.42 -0.12 -0.08 -0.14 -0.38 -0.03 -0.38 0.06 0 0.08 -0.04 0.06 -0.08 -0.03 -0.05 0.15 -0.15 0.39 -0.24 0.24 -0.09 0.92 -0.39 1.50 -0.67 0.91 -0.42 1.60 -0.82 3.72 -2.10 0.87 -0.52 3.52 -2.90 4.58 -4.11 1.18 -1.35 3.24 -4.10 3.24 -4.33 0 -0.07 -3.76 -1.41 -3.96 -1.41 -0.34 0 0.22 -0.36 1.90 -1.22 7.01 -3.59 9.21 -4.69 9.42 -4.69 0.24 0 0.24 0 -0.34 1.10 -3.26 6.16 -5.94 10.13 -8.85 13.13 -2.49 2.58 -5.39 4.60 -8.43 5.90 -0.99 0.42 -1.29 0.47 -2.13 0.31z" data-index="46"></path>
 </g>
 <g fill="#f3bb46">
  <path d="M53.25 85.93 c0.08 -0.08 0.57 -0.24 1.09 -0.38 3.93 -0.99 8.33 -3.16 11.88 -5.84 4.09 -3.09 7.50 -7.22 8.64 -10.45 l0.25 -0.71 0.72 -0.07 c5.01 -0.42 9.22 -3.65 10.88 -8.34 0.50 -1.42 0.67 -2.30 0.72 -3.95 0.07 -1.77 -0.08 -2.89 -0.58 -4.42 -1.43 -4.36 -4.77 -7.41 -9.36 -8.51 l-0.92 -0.22 -0.33 0.20 c-0.22 0.13 -0.55 0.22 -1.01 0.24 -0.85 0.06 -1.47 -0.19 -2.03 -0.80 -0.58 -0.63 -0.77 -1.13 -0.72 -1.94 0.08 -1.45 0.98 -2.35 2.47 -2.47 0.65 -0.05 0.73 -0.04 1.30 0.24 0.65 0.32 1.06 0.76 1.27 1.37 0.11 0.29 0.15 0.32 0.91 0.47 2.53 0.50 5.10 1.89 7.19 3.91 2.71 2.61 4.30 5.65 4.88 9.34 0.32 2.06 0.04 5.01 -0.70 7.14 -1.37 3.98 -4.24 7.30 -7.88 9.14 -1.08 0.53 -2.78 1.12 -3.85 1.30 -0.44 0.08 -0.89 0.17 -1 0.22 -0.11 0.04 -0.52 0.55 -0.93 1.15 -3.69 5.52 -8.63 9.57 -14.47 11.86 -2.40 0.94 -5.94 1.64 -8.25 1.64 -0.29 0 -0.31 -0.02 -0.20 -0.13z" data-index="47" style="opacity: 1;"></path>
  
  <path d="M20.68 59.15 c-1.20 -0.20 -2.56 -1.24 -3.08 -2.36 -0.98 -2.07 -0.08 -4.53 2.04 -5.51 0.56 -0.27 0.70 -0.29 1.67 -0.30 0.90 -0.02 1.13 0.02 1.59 0.20 2.84 1.14 3.49 4.88 1.20 6.97 -1.02 0.94 -2.04 1.24 -3.42 1z m1.65 -1.58 c1.40 -0.52 2.09 -2.24 1.48 -3.64 -0.45 -1.03 -1.58 -1.70 -2.68 -1.58 -1.40 0.14 -2.36 1.14 -2.46 2.56 -0.04 0.58 -0.01 0.75 0.20 1.19 0.62 1.35 2.10 1.99 3.46 1.47z" data-index="49"></path>
  <path d="M59.98 58.18 c-0.51 -0.19 -0.76 -0.37 -1.22 -0.90 l-0.40 -0.47 -1.16 0 -1.16 0 0.07 -0.35 c0.03 -0.20 0.06 -0.66 0.06 -1.02 l0 -0.68 1.16 -0.07 1.17 -0.07 0.22 -0.35 c0.37 -0.54 0.89 -0.85 1.66 -0.97 0.57 -0.08 0.76 -0.08 1.16 0.05 0.63 0.20 1.08 0.58 1.42 1.20 0.22 0.41 0.27 0.62 0.27 1.12 0 0.79 -0.16 1.25 -0.64 1.76 -0.70 0.77 -1.72 1.05 -2.61 0.73z" data-index="50"></path>
  <path d="M76.26 57.20 l-0.29 -0.26 0.19 -0.26 c0.27 -0.38 0.32 -1.13 0.08 -1.55 -0.41 -0.75 -1.42 -1 -2.08 -0.52 l-0.32 0.23 -0.20 -0.19 c-0.11 -0.10 -0.27 -0.19 -0.36 -0.19 -0.25 0 -0.19 -0.14 0.26 -0.55 0.59 -0.54 1.58 -1.17 4.53 -2.86 1.66 -0.96 2.63 -1.46 2.77 -1.44 0.20 0.03 0.11 0.21 -1.16 2.61 -1.63 3.06 -2.47 4.50 -2.85 4.93 l-0.28 0.32 -0.29 -0.27z" data-index="51" style="opacity: 1;"></path>
  <path d="M84.67 40.95 c-1.57 -1.09 -2.96 -1.74 -4.96 -2.32 l-1.14 -0.34 -0.37 -1.03 c-0.90 -2.60 -2.09 -4.97 -3.68 -7.34 -0.36 -0.52 -0.67 -1.01 -0.69 -1.09 -0.03 -0.07 0.22 -0.30 0.64 -0.57 0.85 -0.56 2.78 -1.93 3.38 -2.41 0.25 -0.20 0.53 -0.36 0.62 -0.36 0.10 0 0.35 0.26 0.62 0.68 2.85 4.27 4.96 9.18 6.18 14.32 0.13 0.53 0.22 0.98 0.22 0.98 -0.01 0.01 -0.38 -0.23 -0.81 -0.54z" data-index="52" style="opacity: 1;"></path>
  <path d="M66.27 20.78 c-3.37 -2.55 -7.90 -4.57 -12.24 -5.46 -2.05 -0.41 -3.62 -0.55 -6.31 -0.54 -2.54 0 -4.58 0.18 -6.32 0.55 -0.37 0.08 -0.74 0.16 -0.83 0.18 -0.17 0.03 -0.17 0.03 -0.01 -0.16 0.21 -0.22 0.48 -0.34 2.05 -0.88 3.58 -1.24 7.08 -1.81 11.12 -1.82 4.47 0 9.30 1.18 13.51 3.32 1.21 0.61 3.83 2.17 3.83 2.27 0 0.08 -4.23 2.85 -4.35 2.85 -0.02 0 -0.22 -0.14 -0.44 -0.31z" data-index="53"></path>
 </g>
</svg>